<?xml version="1.0" encoding="UTF-8"?>
<svg id="Livello_1" xmlns="http://www.w3.org/2000/svg" version="1.1" viewBox="0 0 26.5 22.6">
  <!-- Generator: Adobe Illustrator 29.2.1, SVG Export Plug-In . SVG Version: 2.1.0 Build 116)  -->
  <path d="M2.1,1.2c-.6,0-.8.9-.1,1l2,.4.5,2.4s0,0,0,0l2.5,11.4c0,.2.3.4.5.4h14.3c.7,0,.7-1.1,0-1.1H8l-.5-2.2h15.1c.2,0,.5-.2.5-.4l1.8-8.2c0-.3-.2-.6-.5-.6-6.3,0-12.6,0-18.9,0l-.5-2.3c0-.2-.2-.4-.4-.4l-2.3-.5s0,0-.1,0h0ZM10.9,18.1c-1,0-1.9.9-1.9,1.9,0,1,.8,1.9,1.9,1.9s1.9-.9,1.9-1.9c0-1-.8-1.9-1.9-1.9ZM18.5,18.1c-1,0-1.9.9-1.9,1.9,0,1,.8,1.9,1.9,1.9s1.9-.9,1.9-1.9c0-1-.8-1.9-1.9-1.9Z"/>
</svg>