<?xml version="1.0" encoding="UTF-8"?>
<svg id="Livello_1" xmlns="http://www.w3.org/2000/svg" version="1.1" viewBox="0 0 110 87.8">
  <!-- Generator: Adobe Illustrator 29.2.1, SVG Export Plug-In . SVG Version: 2.1.0 Build 116)  -->
  <defs>
    <style>
      .st0 {
        fill-rule: evenodd;
      }
    </style>
  </defs>
  <path class="st0" d="M55,3.8c-8.8,0-16,7.2-16,16v6h-1.6c-4.5,0-8.3,3.2-9,7.6l-6.3,40c-.9,5.5,3.4,10.4,9,10.4h47.8c5.6,0,9.8-4.9,9-10.4l-6.3-40c-.7-4.4-4.5-7.6-9-7.6h-1.6v-6c0-8.8-7.2-16-16-16h0ZM37.4,27.8h1.6v10.1c-2.3.5-4,2.5-4,4.9s2.2,5,5,5,5-2.2,5-5-1.7-4.4-4-4.9v-10.1h28v10.1c-2.3.5-4,2.5-4,4.9s2.2,5,5,5,5-2.2,5-5-1.7-4.4-4-4.9v-10.1h1.6c3.5,0,6.5,2.5,7,5.9l6.3,40c.7,4.2-2.6,8.1-7,8.1H31.1c-4.4,0-7.7-3.8-7-8.1l6.3-40c.5-3.4,3.5-5.9,7-5.9h0ZM41,19.8v6h28v-6c0-7.7-6.3-14-14-14s-14,6.3-14,14ZM37,42.8c0-1.7,1.3-3,3-3s3,1.3,3,3-1.3,3-3,3-3-1.3-3-3ZM67,42.8c0-1.7,1.3-3,3-3s3,1.3,3,3-1.3,3-3,3-3-1.3-3-3Z"/>
</svg>