<?xml version="1.0" encoding="UTF-8"?>
<svg id="Livello_1" xmlns="http://www.w3.org/2000/svg" version="1.1" viewBox="0 0 100 100">
  <!-- Generator: Adobe Illustrator 29.2.0, SVG Export Plug-In . SVG Version: 2.1.0 Build 108)  -->
  <defs>
    <style>
      .st0 {
        fill: #97c0c4;
        stroke: #97c0c4;
        stroke-miterlimit: 10;
      }
    </style>
  </defs>
  <path class="st0" d="M33.3,10c-12.9,0-23.3,10.5-23.3,23.3v33.3c0,12.9,10.5,23.3,23.3,23.3h33.3c12.9,0,23.3-10.5,23.3-23.3v-33.3c0-12.9-10.5-23.3-23.3-23.3h-33.3ZM73.3,23.3c1.8,0,3.3,1.5,3.3,3.3s-1.5,3.3-3.3,3.3-3.3-1.5-3.3-3.3,1.5-3.3,3.3-3.3ZM50,30c11,0,20,9,20,20s-9,20-20,20-20-9-20-20,9-20,20-20ZM50,36.7c-7.4,0-13.3,6-13.3,13.3s6,13.3,13.3,13.3,13.3-6,13.3-13.3-6-13.3-13.3-13.3Z"/>
</svg>