<?xml version="1.0" encoding="UTF-8"?>
<svg id="Livello_1" xmlns="http://www.w3.org/2000/svg" version="1.1" viewBox="0 0 259.8 70.8">
  <!-- Generator: Adobe Illustrator 29.2.0, SVG Export Plug-In . SVG Version: 2.1.0 Build 108)  -->
  <defs>
    <style>
      .st0 {
        fill: #EFEBDC;
      }
    </style>
  </defs>
  <path class="st0" d="M85.4,30.3c0-4.4-3.1-8.6-10.2-8.6h-10.8v30.5h5.2v-13.1h1.7l10.3,13.1h5.2l-10.4-13.2c6-.7,8.9-4.6,8.9-8.7ZM69.7,37.7v-14.8h4c3.7,0,6.5,3,6.5,7s-2.7,7.7-6.4,7.7h-4.1Z"/>
  <path class="st0" d="M98,50.7v-29.1h-5.2v30.5h20v-7.8c-2,4.5-5.6,6.2-14.8,6.4Z"/>
  <path class="st0" d="M128.5,21.7l-10.3,30.5h7.8c-1.4-2.4-2.1-5.5-2-9.1h11.6s3,9.1,3,9.1h5.2l-10.2-30.5h-5.2ZM124.2,41.9c.2-2.8.8-5.9,1.9-9.1,1-2.8,2.3-6.8,3.1-9.2l6.1,18.3h-11.1Z"/>
  <path class="st0" d="M169.1,39v10.5l-14.1-27.9h-5.3v30.5h7.8c-3.4-3.7-6.5-10-6.5-17.3v-10.7l14.2,28.1h5.2v-30.5h-7.8c3.4,3.7,6.5,10,6.5,17.3Z"/>
  <path class="st0" d="M189.1,21.7h-10.8v30.5h10.7c7,0,15.1-3.8,15.1-15.2s-8.1-15.2-15-15.2ZM187.7,50.9h-4.2v-27.9h4.2c7.1,0,11.2,4.4,11.2,13.9s-4.1,14-11.2,14Z"/>
  <path class="st0" d="M225.7,20.6c-9.3,0-15.8,6.9-15.8,16.4s7,16.2,16,16.2,15.8-7.2,15.8-16.4-7.1-16.2-16-16.2ZM228.4,51.6c-8.2,0-13.9-11.3-13.9-20.1s3-9.5,9-9.5,13.4,10.8,13.4,19.7-2.9,9.9-8.5,9.9Z"/>
  <path class="st0" d="M31.1,22.7c-12.1,9.5-7.1,29.5,8.1,32.1,12.5,2.1,22.4-10,19.2-21.9-2.9-12-17.3-17.9-27.4-10.1ZM54.5,27.2c-.6.5-1.5,1.4-3.1,2.8-.3.3-.7.6-1.1.9-2.4,2-4.9,4.2-6.7,5.7.2,0,.4,0,.6,0,2.1-1.3,5-3.2,7.3-4.5.3-.2.5-.3.8-.5,1.8-1.1,3-1.7,3.6-2,.4.7.7,1.5.9,2.3-.7.3-2,1-3.7,1.7-.8.3-1.7.7-2.6,1.1-1.8.7-3.6,1.4-5.5,2.1-.3,0-.6,0-.9,0-.2.4-.3.8-.5,1.3-.4,1.1-.5,2.6-.7,4.1-.4,4.3-.9,9-5.6,11-.5-.2-1.1-.3-1.6-.6,4.5-2.3,5.2-7.5,5.6-11.2.2-1.3.3-2.6.6-3.5.2-.5.4-1,.6-1.4,0,0-.1,0-.2,0l1.9-4.6c.8-2,1.8-4.4,2.7-6.3,0-.1.1-.3.2-.4.2-.3.3-.7.4-1,.4-.8.7-1.4.9-1.9.7.4,1.5.8,2.1,1.3-.3.6-.9,1.7-1.8,3.1-.4.6-.7,1.2-1.2,2-.4.6-.7,1.2-1.2,1.9-.4.6-.7,1.2-1.1,1.7-1,1.6-1.9,3.1-2.6,4.3,0,0,0,0,0,0,.1,0,.2,0,.4,0,0,0,0,0,0,0,1.7-2.1,4.5-5.4,6.5-7.5,0-.1.2-.2.3-.3.1-.1.2-.2.3-.4,1.1-1.2,1.9-2.1,2.4-2.6.1-.1.2-.2.3-.3.6.6,1.1,1.2,1.6,1.8ZM30.2,25.1s0,.1.1.2c0,0,0,0,0,0,.6.7,1.6,1.8,3.3,3.6,1.7,1.9,4,4.6,5.7,6.7.2,0,.5.1.7.2-.9-1.5-2.2-3.5-3.3-5.3-.2-.4-.4-.7-.7-1.1-.2-.3-.3-.6-.5-.8-1.5-2.4-2.5-4.2-3-5.2,0,0,0-.2-.1-.2.7-.5,1.4-.9,2.2-1.3,0,.2.2.3.3.6,0,0,0,.2.1.3.9,2.1,2.7,6,3.9,9l1.7,4.2c.1,0,.3,0,.4,0l-1.2-5.1c0-.1,0-.2,0-.4-.3-1.4-.6-2.7-.9-4.1-.2-1-.4-1.9-.6-2.6-.2-.7-.3-1.4-.4-1.9,0-.5-.2-.9-.2-1.1.8-.2,1.6-.3,2.5-.4,0,.4.1.9.2,1.6.3,2.3.7,6,.9,9.6l.3,4.5c.1,0,.2,0,.3,0l.2-2.4c0-1,.1-2,.2-3,0-.7,0-1.3.1-2,.2-2.1.3-4.3.6-6.1,0-.8.2-1.4.3-2.1.8.1,1.7.3,2.5.5-.1.5-.3,1.4-.5,2.5-.2.7-.3,1.5-.5,2.4-.4,1.9-.8,3.7-1.3,5.6l-1.1,4.7c-.4,0-.7-.1-1.1-.2-.2.4-.4.8-.5,1.2-.4,1-.5,2.3-.7,3.8-.5,4-1.1,8.7-5.9,10.4-.4-.2-.8-.5-1.1-.7,4.3-2.2,5-7,5.5-10.4.2-1.3.3-2.4.6-3.2.2-.6.5-1.1.7-1.5-.5-.1-1-.3-1.6-.4-.2.4-.4.8-.6,1.3-.4.9-.5,2.1-.7,3.5-.5,3.6-1.2,7.9-5.4,9.5-.3-.3-.6-.6-.9-.9,3.5-2.1,4.2-6.3,4.8-9.4.2-1.2.4-2.2.7-2.9.3-.7.6-1.2,1-1.7-.5-.1-.9-.3-1.4-.4,0,0-.1,0-.2,0-.3.5-.6,1-.9,1.6-.4.8-.5,1.9-.8,3.2-.5,3.1-1.2,6.7-4.3,8.4-.3-.4-.6-.8-.9-1.2,2.5-2.1,3.2-5.5,3.7-7.9.2-1.1.4-2,.7-2.6.4-.9.9-1.5,1.4-2-.6-.2-1.1-.4-1.7-.5-.4.5-.8,1.1-1.1,1.8-.4.7-.6,1.8-.8,2.9-.5,2.4-1.1,5.1-2.9,6.8-.3-.6-.6-1.1-.8-1.7,1.3-1.8,1.8-4,2.2-5.7.2-1,.4-1.8.7-2.3.6-1.1,1.2-1.7,1.9-2.1-.7-.2-1.3-.3-1.9-.4-.5.5-.9,1.1-1.4,1.8-.4.7-.6,1.6-.8,2.6-.3,1.4-.7,2.8-1.4,4.1-.3-1.1-.5-2.2-.6-3.3.2-.5.3-.9.4-1.3.2-.9.5-1.6.7-2,.8-1.3,1.7-1.9,2.4-2.1-.9-.2-1.7-.3-2.3-.3-.3.3-.6.6-.9,1,.3-1.3.7-2.6,1.2-3.8.3.1.6.3,1.1.6.8.5,2,1.1,3.6,2.1,0,0,0,0,0,0,1,.6,2.9,1.7,4.5,2.5.6.2,1.2.4,1.8.6-1.5-1.3-3.4-2.9-5.1-4.3-1.9-1.6-3.2-2.8-4-3.5-.1-.1-.3-.3-.4-.4.5-.6,1-1.3,1.6-1.9ZM53.6,48.4c.1-1.2.2-2.3.2-3.4,0-1.8.2-3.5.5-4.8.6-2.4,1.6-3.8,2.6-4.7-.9.3-1.8.6-2.6.8-.6.9-1.1,2.1-1.5,3.5-.4,1.4-.4,3.2-.5,5.1,0,1.7-.2,3.5-.5,5.2-.7.6-1.5,1.1-2.3,1.6.9-2.5,1.1-5.3,1.2-7.7.1-1.7.2-3.3.5-4.4.3-1.2.8-2.2,1.3-3-.6.1-1.3.1-1.9.2-.3.7-.6,1.4-.9,2.3-.4,1.3-.5,3-.6,4.7-.2,3-.4,6.2-1.8,8.8-.9.3-1.8.6-2.8.8,2.4-2.9,2.8-7,3-10.3.1-1.6.2-3,.6-4.1.2-.8.5-1.5.8-2.1-.6,0-1.2,0-1.7,0-.2.5-.4,1-.6,1.6-.4,1.2-.5,2.8-.6,4.4-.3,3.9-.7,8.2-3.9,10.7-.8,0-1.6,0-2.4-.2,3.9-2.7,4.4-7.7,4.8-11.3.1-1.5.3-2.8.6-3.8.2-.6.4-1.1.6-1.6.2,0,.3,0,.5,0,0,0,0,0,0,0,2.7-.6,5.9-1.2,7.5-1.5,0,0,0,0,0,0,1.9-.4,3.1-.7,3.7-.8,0,.5.1,1,.2,1.5-.8,1.1-1.5,2.5-1.9,4.4-.4,1.5-.4,3.4-.5,5.4,0,0,0,.1,0,.2-.5.8-1.1,1.6-1.8,2.4ZM57.6,40c-.1.7-.3,1.3-.4,1.9,0-.4.1-.7.2-1,0-.3.2-.6.2-.9Z"/>
</svg>