<?xml version="1.0" encoding="UTF-8"?>
<svg id="Livello_1" xmlns="http://www.w3.org/2000/svg" version="1.1" viewBox="0 0 182.2 31.8">
  <!-- Generator: Adobe Illustrator 29.2.0, SVG Export Plug-In . SVG Version: 2.1.0 Build 108)  -->
  <defs>
    <style>
      .st0 {
        fill: #e2d7b8;
      }
    </style>
  </defs>
  <g>
    <path class="st0" d="M3.5,14.7c-.1.2-.3.5-.4.8,0,.6-.1,1.2-.1,1.7s0,1.5.2,2.2c.4-.9.6-1.7.8-2.5.2-.7.4-1.3.6-1.6.6-1,1.4-1.5,1.9-1.7-.7,0-1.4-.2-1.9-.3-.4.3-.8.8-1.1,1.3h0Z"/>
    <path class="st0" d="M5.3,17.4c-.3,1.4-.7,3-1.6,4.2.1.5.3.9.5,1.4,1.4-1.6,1.9-3.7,2.3-5.3.2-.8.4-1.5.6-1.9.5-.9,1-1.4,1.5-1.7-.5,0-1.1-.3-1.5-.4-.4.4-.8.9-1.1,1.5-.3.5-.5,1.3-.7,2.2h0Z"/>
    <path class="st0" d="M7.8,18.2c-.5,2.2-1,4.7-3,6.1.2.4.4.7.7,1.1,2.5-1.7,3.1-4.8,3.6-6.9.2-.9.3-1.6.6-2.1.3-.7.7-1.2,1.1-1.6-.5-.2-.9-.3-1.4-.4-.3.4-.6.9-.9,1.5-.3.6-.5,1.4-.7,2.4h0Z"/>
    <path class="st0" d="M10.3,18.9c-.5,2.7-1,6-4.2,7.2.3.3.6.7.9,1,3.4-1.6,4.1-5.3,4.6-8,.2-1,.3-1.8.5-2.3.2-.6.5-1,.8-1.4-.4,0-.7-.2-1.1-.4h-.2c-.2.4-.5.8-.7,1.3-.3.7-.4,1.6-.6,2.6h0Z"/>
    <path class="st0" d="M12.8,19.7c-.5,3.2-1,6.9-5.2,8,.4.3.8.7,1.2,1,4.2-1.6,4.8-5.8,5.2-8.8.2-1,.3-2,.5-2.6.2-.5.4-.9.6-1.2-.4,0-.8-.2-1.3-.3-.2.3-.4.7-.5,1.1-.3.8-.4,1.7-.6,2.9h0Z"/>
    <path class="st0" d="M15.3,20.5c-.4,3.5-.9,7.7-5.7,8.8.5.3,1,.6,1.6.8,4.4-1.7,5-6.2,5.3-9.5,0-1.1.3-2.1.5-2.8.2-.4.3-.8.5-1.2h-.4c-.3,0-.6,0-.9-.2-.2.3-.3.6-.4,1-.3.8-.4,1.9-.6,3.1h.1Z"/>
    <path class="st0" d="M17.8,21.3c-.4,3.8-.8,8-5.4,9.3.7.2,1.4.4,2.1.5,3.8-2.1,4.3-6.5,4.6-9.7,0-1.2.2-2.3.5-3.1.2-.5.3-.9.5-1.3h-1.4c0,.3-.3.7-.4,1-.3.9-.4,2.1-.5,3.4h0Z"/>
    <path class="st0" d="M20.4,22.1c-.3,3.5-.6,7.3-3.9,9.2h.4c.6,0,1.3,0,1.9,0,2.4-2.4,2.7-6,2.9-9,0-1.3.2-2.5.5-3.3.2-.7.4-1.2.7-1.7h-1.4c-.2.4-.3.8-.5,1.3-.3,1-.4,2.3-.5,3.6h-.1Z"/>
    <path class="st0" d="M22.9,22.8c-.2,2.7-.3,5.7-1.9,7.8.7-.2,1.3-.4,1.8-.7,1-2.2,1.2-4.8,1.3-7.1,0-1.4.2-2.7.4-3.6.3-1,.7-1.8,1.1-2.4-.5,0-1,0-1.6.2-.3.5-.5,1.2-.7,1.9-.3,1.1-.4,2.4-.5,3.9h.1Z"/>
    <path class="st0" d="M25.4,23.6c0,1.7-.2,3.5-.6,5.2.5-.4,1.1-.8,1.5-1.3.2-1.3.2-2.6.3-3.8,0-1.5,0-2.8.4-3.9.5-2,1.3-3.1,2.1-3.8-.7.2-1.4.5-2.2.6-.5.8-.9,1.7-1.2,2.9s-.4,2.6-.4,4.1h.1Z"/>
    <path class="st0" d="M27.9,24.4v1.3c.5-.8,1-1.6,1.4-2.5,0-1.1,0-2.1.3-2.9.2-.9.5-1.6.8-2.3v-2.2c-.8.9-1.5,2.2-2,4.2-.3,1.2-.3,2.8-.4,4.4h0Z"/>
    <path class="st0" d="M15.7,4.9c.2,1.8.5,4.9.7,7.9l.3,3.7h.3l.2-1.9c0-.8,0-1.6.2-2.5,0-.5,0-1.1,0-1.7,0-1.8.3-3.5.5-5,0-.8.2-1.5.3-2.2h-2.6v.2c0,.3,0,.8.2,1.5h-.2Z"/>
    <path class="st0" d="M7.5,7.6h0c.5.5,1.3,1.5,2.7,2.9,1.4,1.5,3.3,3.8,4.7,5.4.2,0,.4,0,.6.2-.8-1.2-1.8-2.9-2.7-4.3-.2-.3-.4-.6-.5-.9,0-.2-.3-.5-.4-.7-1.2-2-2-3.4-2.5-4.2-.2-.5-.4-.7-.4-.7-.2.1-.4.3-.5.4-.4.3-.8.6-1.1.9s-.4.4-.4.4c0,0,0,.1.4.4v.2h.1Z"/>
    <path class="st0" d="M20.6,17.1c2.2-.5,4.8-1,6.1-1.2h0c2.3-.5,3.3-.7,3.5-.7h0v-.5c0-.3-.2-.7-.3-1.2,0-.2,0-.4-.2-.6h0c-.2,0-1.6.8-3.5,1.6-.7.3-1.4.6-2.2.9-1.4.6-2.9,1.1-4.5,1.7h1.1Z"/>
    <path class="st0" d="M20.1,17h.4-.4Z"/>
    <path class="st0" d="M20.1,17h-.6.6Z"/>
    <path class="st0" d="M23.9,12.2c-1.9,1.7-4,3.4-5.4,4.6h.5c1.7-1.1,4.1-2.6,6-3.7.2,0,.4-.3.7-.4,2.2-1.3,3.2-1.8,3.5-1.9h0s-.2-.5-.6-1.1h0c-.2-.3-.5-.7-.7-1h0c-.2.2-1,1.1-2.9,2.7-.3.2-.6.5-.9.8h-.2Z"/>
    <path class="st0" d="M18,16.8h-.3.3Z"/>
    <path class="st0" d="M23.3,10.6s0-.2.2-.2c0,0,.2-.2.3-.3.9-1,1.5-1.7,1.9-2.1.4-.4.6-.7.7-.7h0s-.3-.2-.7-.6c-.2-.1-.3-.3-.6-.5s-.5-.4-.8-.6h0c0,.1-.6,1.2-1.8,3.1-.3.5-.6,1-1,1.6-.3.5-.6,1-.9,1.5-.3.5-.6.9-.9,1.4-.8,1.3-1.5,2.5-2.1,3.5h.3c1.4-1.7,3.7-4.4,5.3-6.2h0Z"/>
    <path class="st0" d="M19,12.9c.6-1.7,1.5-3.6,2.2-5.2,0,0,0-.2,0-.3,0-.3.2-.5.4-.8.5-1.2.9-2,.9-2h0s-.7-.5-2.5-.9h0s-.2,1-.5,2.6c0,.6-.3,1.3-.4,2-.3,1.5-.7,3-1.1,4.5l-.9,3.9h.3l1.5-3.8h0Z"/>
    <path class="st0" d="M17.4,16.6h-.3.3Z"/>
    <path class="st0" d="M11.4,5.5c.8,1.7,2.2,4.9,3.2,7.3l1.4,3.5h.3l-1-4.2v-.3c-.3-1.1-.5-2.2-.8-3.3-.2-.8-.3-1.5-.5-2.2,0-.6-.2-1.1-.3-1.5-.2-.9-.3-1.4-.3-1.4-.5.1-.9.2-1.2.3h-.2c-.2,0-.3.1-.5.2-.3.1-.5.2-.5.2,0,0,.2.4.4.9,0,0,0,.2,0,.2h0v.3Z"/>
    <path class="st0" d="M8.7,13.2h0c.8.5,2.4,1.4,3.7,2.1.5.2,1,.3,1.5.5-1.3-1.1-2.8-2.3-4.2-3.5-1.5-1.3-2.6-2.3-3.2-2.9l-.7-.7s-.1.2-.2.3h0c0,.2-.2.4-.2.5-.1.2-.3.5-.4.8l-.3.6s.4.2,1.4.7c.7.4,1.6.9,2.9,1.7h-.3Z"/>
  </g>
  <g>
    <path class="st0" d="M35.4,4.6h8.8c5.8,0,8.3,3.4,8.3,7s-2.4,6.5-7.3,7.1l8.5,10.8h-4.3l-8.4-10.7h-1.3v10.7h-4.3V4.6h0ZM39.6,5.7v12.1h3.4c3,0,5.2-3.1,5.2-6.3s-2.3-5.7-5.3-5.7h-3.3,0Z"/>
    <path class="st0" d="M58.5,4.6h4.3v23.7c7.5-.2,10.4-1.6,12.1-5.3v6.4h-16.3V4.5h-.1Z"/>
    <path class="st0" d="M79.3,29.5l8.4-24.9h4.3l8.3,24.9h-4.3l-2.5-7.4h-9.5c0,2.9.5,5.4,1.6,7.4h-6.4,0ZM93.3,21.2l-5-15c-.6,1.9-1.7,5.2-2.5,7.5-.9,2.6-1.4,5.2-1.6,7.5h9.1Z"/>
    <path class="st0" d="M105,4.6h4.3l11.5,22.7v-8.6c0-6-2.6-11.2-5.3-14.1h6.4v24.9h-4.3l-11.6-22.9v8.8c0,6,2.6,11.2,5.3,14.2h-6.4V4.7h.1Z"/>
    <path class="st0" d="M137.2,4.6c5.7,0,12.3,3.1,12.3,12.4s-6.6,12.4-12.3,12.4h-8.7V4.5h8.8-.1ZM132.6,5.7v22.8h3.4c5.8,0,9.1-3.7,9.1-11.5s-3.4-11.4-9.1-11.4h-3.4Z"/>
    <path class="st0" d="M154.2,17.2c0-7.8,5.3-13.4,12.9-13.4s13.1,5.9,13.1,13.2-5.1,13.4-12.9,13.4-13.1-5.9-13.1-13.2h0ZM169.3,29.1c4.6,0,6.9-3.6,6.9-8.1,0-7.2-4.3-16.1-10.9-16.1s-7.4,3.4-7.4,7.8c0,7.2,4.7,16.4,11.4,16.4h0Z"/>
  </g>
  <path class="st0" d="M30.4,13.7c2.6,9.8-5.5,19.6-15.7,17.9C2.3,29.5-1.8,13.2,8.1,5.4,16.3-1,28.1,3.9,30.5,13.7h0ZM29.5,14C27.3,4.9,16.3.4,8.7,6.3-.4,13.5,3.4,28.6,14.9,30.6c9.5,1.6,17-7.5,14.6-16.6h0Z"/>
</svg>