<?xml version="1.0" encoding="UTF-8"?>
<svg id="Livello_1" xmlns="http://www.w3.org/2000/svg" version="1.1" viewBox="0 0 59.2 62.4">
  <!-- Generator: Adobe Illustrator 29.2.0, SVG Export Plug-In . SVG Version: 2.1.0 Build 108)  -->
  <defs>
    <style>
      .st0 {
        fill: #1d1d1b;
      }
    </style>
  </defs>
  <g>
    <path class="st0" d="M5.9,26.3c-.3.4-.5.9-.7,1.5-.1,1-.2,2.1-.2,3.1s.1,2.6.3,3.9c.7-1.5,1.1-3.1,1.5-4.4.4-1.3.7-2.4,1-2.9,1.1-1.9,2.4-2.7,3.5-3.1-1.3-.2-2.5-.4-3.4-.5-.7.6-1.4,1.4-2,2.4Z"/>
    <path class="st0" d="M9.1,31.2c-.6,2.6-1.3,5.4-2.9,7.6.3.8.6,1.7.9,2.5,2.6-2.8,3.5-6.7,4.2-9.6.3-1.4.6-2.6,1-3.3.9-1.6,1.8-2.6,2.7-3.1-1-.3-1.9-.5-2.8-.6-.7.7-1.4,1.5-2,2.7-.5,1-.8,2.3-1.2,3.9Z"/>
    <path class="st0" d="M13.6,32.6c-.8,3.9-1.8,8.4-5.4,10.9.4.7.8,1.3,1.2,2,4.5-3.1,5.6-8.6,6.4-12.4.3-1.6.6-2.9,1-3.8.6-1.3,1.3-2.2,2-2.9-.9-.3-1.7-.5-2.5-.7-.6.7-1.2,1.6-1.7,2.7-.5,1.1-.8,2.6-1.2,4.3Z"/>
    <path class="st0" d="M18.1,34c-.9,4.9-1.9,10.8-7.6,13,.5.6,1,1.2,1.6,1.8,6.2-2.9,7.4-9.6,8.2-14.4.3-1.7.6-3.2,1-4.2.4-1.1,1-1.8,1.5-2.5-.7-.2-1.3-.4-2-.6-.1,0-.2,0-.3-.1-.4.7-.9,1.5-1.3,2.4-.5,1.2-.8,2.8-1.1,4.7Z"/>
    <path class="st0" d="M22.6,35.3c-.8,5.7-1.9,12.5-9.3,14.5.7.6,1.4,1.2,2.2,1.8,7.5-2.8,8.6-10.5,9.4-15.9.3-1.9.5-3.5.9-4.6.3-.9.7-1.6,1.1-2.2-.8-.2-1.5-.4-2.3-.6-.3.6-.6,1.2-.9,2-.5,1.4-.8,3.1-1.1,5.1Z"/>
    <path class="st0" d="M27.2,36.7c-.8,6.2-1.7,13.8-10.2,15.8.9.6,1.9,1.1,2.9,1.5,7.9-3.1,8.9-11.2,9.6-17,.2-2,.5-3.8.9-5.1.3-.8.6-1.5.9-2.1-.1,0-.2,0-.3,0h0c-.2,0-.3,0-.5,0h0c-.5-.1-1-.2-1.6-.3-.3.5-.5,1.1-.7,1.8-.5,1.5-.8,3.4-1,5.6Z"/>
    <path class="st0" d="M31.7,38.1c-.7,6.8-1.4,14.3-9.8,16.7,1.2.4,2.5.7,3.8.9,6.9-3.7,7.7-11.7,8.3-17.4.2-2.1.4-4.2.9-5.6.3-.9.6-1.6,1-2.3-.4,0-.7,0-1.1-.1,0,0,0,0,0,0-.5,0-.9,0-1.4-.1-.3.6-.5,1.2-.7,1.9-.5,1.6-.7,3.8-1,6.1Z"/>
    <path class="st0" d="M36.2,39.6c-.5,6.3-1,13.2-7,16.5.2,0,.5,0,.7,0,1.2,0,2.3,0,3.3-.2,4.3-4.3,4.9-10.9,5.3-16.2.2-2.3.4-4.5.8-6,.4-1.2.8-2.2,1.2-3-.9,0-1.7,0-2.6,0-.3.7-.6,1.5-.9,2.4-.5,1.8-.7,4.1-.9,6.5Z"/>
    <path class="st0" d="M40.7,41c-.3,4.9-.6,10.2-3.4,14.1,1.2-.3,2.3-.8,3.3-1.3,1.8-4,2.1-8.7,2.4-12.7.2-2.5.3-4.8.8-6.5.5-1.8,1.2-3.2,1.9-4.4-.9.2-1.9.2-2.8.3-.5,1-.9,2.1-1.3,3.4-.5,1.9-.7,4.4-.8,7Z"/>
    <path class="st0" d="M45.3,42.4c-.1,3.1-.3,6.4-1,9.4,1-.7,1.9-1.5,2.8-2.4.3-2.4.4-4.7.5-6.9.1-2.6.2-5.1.7-7,.9-3.5,2.4-5.6,3.8-6.9-1.3.4-2.6.8-3.9,1.1-.8,1.4-1.6,3.1-2.2,5.2-.5,2.1-.7,4.7-.8,7.5Z"/>
    <path class="st0" d="M49.8,43.8c0,.8,0,1.6,0,2.4,1-1.4,1.8-2.9,2.5-4.6,0-1.9.2-3.7.6-5.2.4-1.6.9-3,1.5-4.1,0-.6,0-1.1,0-1.7s0-1.6-.1-2.3c-1.4,1.7-2.8,4-3.7,7.6-.5,2.2-.6,5-.7,7.9Z"/>
    <path class="st0" d="M27.8,8.7c.4,3.3,1,8.9,1.3,14.2l.5,6.7c.2,0,.3,0,.5.1l.3-3.6c0-1.4.2-2.9.3-4.5,0-1,.1-2,.2-3,.2-3.2.5-6.3.8-9,.2-1.5.3-2.8.5-3.9,0,0,0,0,0,0,0,0,0,0,0,0,0,0-1,0-2.3,0,0,0,0,0,0,0-.3,0-.5,0-.8,0-.3,0-.5,0-.8,0-.3,0-.5,0-.8,0,0,0,0,0,0,0,0,0,0,.1,0,.4,0,.5.2,1.4.3,2.6Z"/>
    <path class="st0" d="M13.1,13.5s0,0,0,0c.9,1,2.4,2.6,4.8,5.3,2.5,2.8,5.9,6.8,8.4,9.8.4,0,.7.2,1.1.3-1.4-2.2-3.2-5.2-4.8-7.8-.3-.5-.7-1.1-1-1.6-.3-.4-.5-.8-.8-1.2-2.2-3.5-3.6-6.2-4.4-7.6-.4-.8-.7-1.3-.7-1.3-.3.2-.7.5-1,.7-.8.6-1.4,1.2-1.9,1.6-.5.4-.7.7-.7.7,0,0,.2.2.7.8,0,0,.2.2.2.3Z"/>
    <path class="st0" d="M36.6,30.6c4-.8,8.7-1.7,11-2.2,0,0,0,0,0,0,4.1-.9,5.9-1.2,6.3-1.3,0,0,.1,0,.1,0,0,0,0-.4-.2-1-.1-.6-.3-1.3-.5-2.2,0-.4-.2-.7-.3-1.1h-.1c-.4.2-2.9,1.4-6.4,2.9-1.2.5-2.5,1-3.9,1.6-2.6,1-5.3,2-8,3.1.4,0,.7,0,1.1.1.3,0,.5,0,.8,0Z"/>
    <path class="st0" d="M35.8,30.5c.3,0,.5,0,.8,0,0,0,0,0,0,0-.3,0-.5,0-.8,0,0,0,0,0,0,0Z"/>
    <path class="st0" d="M35.8,30.5s0,0,0,0c-.4,0-.7,0-1.1-.1,0,0,0,0,0,0,.4,0,.7,0,1.1.1Z"/>
    <path class="st0" d="M42.5,21.7c-3.5,3-7.3,6.2-9.8,8.4.3,0,.5,0,.8.1,3.1-1.9,7.4-4.7,10.7-6.7.4-.3.8-.5,1.2-.7,4-2.4,5.8-3.3,6.3-3.5,0,0,0,0,0,0,0,0-.4-.9-1.1-2,0,0,0,0,0,0-.4-.6-.8-1.2-1.2-1.8,0,0,0,0,0,0-.3.3-1.9,1.9-5.3,4.8-.5.4-1,.9-1.6,1.4Z"/>
    <path class="st0" d="M32,30s0,0,0,0c-.2,0-.4,0-.5-.1,0,0,0,0,0,0,.2,0,.4,0,.5.1Z"/>
    <path class="st0" d="M41.5,18.9c.1-.2.3-.3.4-.4.2-.2.3-.4.5-.5,1.6-1.8,2.7-3,3.5-3.8.7-.8,1.1-1.2,1.2-1.3,0,0,0,0,0,0,0,0-.5-.5-1.2-1.1-.3-.3-.6-.6-1-.9-.5-.4-.9-.7-1.4-1.1,0,0,0,0,0,0-.1.2-1.1,2.2-3.1,5.6-.5.9-1.1,1.8-1.7,2.9-.5.9-1.1,1.8-1.7,2.8-.5.8-1,1.7-1.6,2.5-1.4,2.3-2.8,4.6-3.8,6.3.2,0,.4,0,.5.1,2.5-3,6.7-7.9,9.5-11.1Z"/>
    <path class="st0" d="M33.7,23c1.2-3,2.7-6.5,3.9-9.3,0-.2.2-.4.2-.6.2-.5.4-1,.7-1.4.9-2.1,1.6-3.5,1.7-3.7,0,0,0,0,0,0,0,0-1.2-.8-4.4-1.6,0,0,0,0,0,0,0,0-.4,1.8-1,4.7-.2,1-.5,2.3-.8,3.6-.6,2.7-1.2,5.5-1.9,8.2l-1.7,6.9c.2,0,.3,0,.5,0l2.8-6.8Z"/>
    <path class="st0" d="M30.9,29.8h0c-.2,0-.3,0-.5,0h0c.2,0,.3,0,.5,0Z"/>
    <path class="st0" d="M20.1,9.8c1.4,3,4,8.8,5.7,13.2l2.5,6.2c.2,0,.4,0,.6.1l-1.8-7.5c0-.2,0-.4-.1-.5-.5-2-.9-4-1.4-6-.3-1.4-.6-2.7-.9-3.9-.2-1.1-.4-2-.6-2.8-.3-1.6-.5-2.5-.5-2.5-.9.2-1.6.4-2.2.6,0,0-.1,0-.2,0,0,0-.2,0-.3,0-.3.1-.6.2-.9.3-.6.2-.9.4-.9.4,0,0,.3.6.8,1.7,0,.1.1.3.2.5Z"/>
    <path class="st0" d="M15.3,23.6s0,0,0,0c1.5.9,4.3,2.5,6.6,3.7.9.3,1.8.6,2.6.8-2.3-1.9-4.9-4.2-7.5-6.4-2.8-2.4-4.7-4.1-5.8-5.2-.9-.8-1.3-1.3-1.3-1.3-.1.2-.3.4-.4.6,0,0,0,.1-.1.2-.2.2-.3.5-.4.7-.3.4-.5.9-.8,1.4-.3.7-.5,1.2-.5,1.2,0,0,.7.3,2.5,1.3,1.2.7,2.9,1.6,5.2,3Z"/>
  </g>
  <path class="st0" d="M54.5,24.4c4.7,17.7-9.9,35.6-28.5,32.5C3.6,53.1-3.9,23.5,14,9.4c14.9-11.5,36.2-2.8,40.5,15h0ZM52.9,24.8C48.8,8.3,29,.1,15.2,10.9-1.4,23.9,5.6,51.4,26.4,55c17.3,2.9,30.8-13.7,26.5-30.2h0Z"/>
</svg>