<?xml version="1.0" encoding="UTF-8"?>
<svg id="Livello_1" xmlns="http://www.w3.org/2000/svg" version="1.1" viewBox="0 0 213.7 68.8">
  <!-- Generator: Adobe Illustrator 29.2.0, SVG Export Plug-In . SVG Version: 2.1.0 Build 108)  -->
  <defs>
    <style>
      .st0 {
        fill: #1d1d1b;
      }
    </style>
  </defs>
  <path class="st0" d="M71,31c0-3.6-2.6-7-8.3-7h-8.8v24.9h4.3v-10.7h1.4l8.4,10.7h4.3l-8.5-10.8c4.9-.5,7.3-3.8,7.3-7.1ZM58.1,37.1v-12.1h3.3c3,0,5.3,2.5,5.3,5.7s-2.2,6.3-5.2,6.3h-3.4Z"/>
  <path class="st0" d="M81.2,47.7v-23.7h-4.3v24.9h16.3v-6.4c-1.6,3.7-4.6,5.1-12.1,5.3Z"/>
  <path class="st0" d="M106.2,23.9l-8.4,24.9h6.4c-1.2-2-1.7-4.5-1.6-7.4h9.5s2.5,7.4,2.5,7.4h4.3l-8.4-24.9h-4.3ZM102.6,40.5c.1-2.3.7-4.8,1.6-7.5.8-2.3,1.9-5.6,2.5-7.5l5,15h-9.1Z"/>
  <path class="st0" d="M139.3,38.1v8.6l-11.5-22.8h-4.3v24.9h6.4c-2.8-3-5.3-8.2-5.3-14.1v-8.8l11.6,22.9h4.3v-24.9h-6.4c2.8,3,5.3,8.1,5.3,14.1Z"/>
  <path class="st0" d="M155.6,23.9h-8.8v24.9h8.7c5.7,0,12.3-3.1,12.3-12.4s-6.6-12.4-12.3-12.4ZM154.5,47.8h-3.4v-22.8h3.4c5.8,0,9.1,3.6,9.1,11.4s-3.4,11.4-9.1,11.4Z"/>
  <path class="st0" d="M185.5,23.1c-7.6,0-12.9,5.7-12.9,13.4s5.7,13.2,13.1,13.2,12.9-5.9,12.9-13.4-5.8-13.2-13.1-13.2ZM187.7,48.4c-6.7,0-11.4-9.2-11.4-16.4s2.5-7.8,7.4-7.8,10.9,8.9,10.9,16.1-2.3,8.1-6.9,8.1Z"/>
  <path class="st0" d="M26.5,24.8c-9.9,7.8-5.8,24.1,6.6,26.2,10.2,1.7,18.3-8.1,15.7-17.9-2.4-9.8-14.2-14.6-22.3-8.3ZM45.7,28.5c-.5.4-1.3,1.2-2.5,2.3-.3.2-.6.5-.9.8-1.9,1.7-4,3.4-5.4,4.6.1,0,.3,0,.5,0,1.7-1.1,4.1-2.6,6-3.7.2-.1.4-.3.7-.4,1.5-.9,2.4-1.4,3-1.7.3.6.6,1.2.8,1.9-.6.3-1.7.8-3.1,1.4-.7.3-1.4.6-2.2.9-1.4.6-2.9,1.1-4.5,1.7-.3,0-.5,0-.8,0-.1.3-.3.7-.4,1-.3.9-.4,2.1-.5,3.4-.3,3.5-.7,7.4-4.5,8.9-.4-.1-.9-.3-1.3-.5,3.7-1.9,4.2-6.1,4.6-9.1.1-1.1.3-2.1.5-2.8.2-.4.3-.8.5-1.2,0,0-.1,0-.2,0l1.5-3.8c.6-1.6,1.5-3.6,2.2-5.2,0-.1,0-.2.1-.3.1-.3.2-.5.4-.8.3-.6.5-1.2.7-1.5.6.3,1.2.7,1.7,1-.3.5-.8,1.4-1.5,2.6-.3.5-.6,1-1,1.6-.3.5-.6,1-.9,1.5-.3.5-.6.9-.9,1.4-.8,1.3-1.6,2.5-2.1,3.5,0,0,0,0,0,0,0,0,.2,0,.3,0,0,0,0,0,0,0,1.4-1.7,3.7-4.4,5.3-6.2,0,0,.1-.2.2-.2,0-.1.2-.2.3-.3.9-1,1.5-1.7,1.9-2.1,0,0,.2-.2.2-.3.5.5.9,1,1.3,1.5ZM25.9,26.8s0,0,.1.1c0,0,0,0,0,0,.5.5,1.3,1.4,2.7,2.9,1.4,1.5,3.3,3.8,4.7,5.4.2,0,.4.1.6.2-.8-1.2-1.8-2.9-2.7-4.3-.2-.3-.4-.6-.5-.9-.1-.2-.3-.5-.4-.7-1.2-2-2-3.4-2.5-4.2,0,0,0-.1,0-.2.6-.4,1.2-.7,1.8-1,0,.1.1.3.2.5,0,0,0,.2.1.3.8,1.7,2.2,4.9,3.2,7.3l1.4,3.5c.1,0,.2,0,.3,0l-1-4.2c0-.1,0-.2,0-.3-.3-1.1-.5-2.2-.8-3.3-.2-.8-.3-1.5-.5-2.2-.1-.6-.2-1.1-.3-1.6,0-.4-.1-.7-.2-.9.7-.2,1.3-.3,2-.3,0,.3,0,.7.2,1.3.2,1.8.6,4.9.7,7.9l.3,3.7c0,0,.2,0,.3,0l.2-2c0-.8.1-1.6.2-2.5,0-.5,0-1.1.1-1.7.1-1.8.3-3.5.5-5,0-.6.1-1.2.2-1.7.7,0,1.4.2,2,.4,0,.4-.2,1.2-.4,2.1-.1.6-.3,1.3-.4,2-.3,1.5-.7,3-1.1,4.5l-.9,3.9c-.3,0-.6-.1-.9-.2-.1.3-.3.6-.4,1-.3.8-.4,1.9-.6,3.1-.4,3.3-.9,7.1-4.8,8.5-.3-.2-.6-.4-.9-.6,3.5-1.8,4.1-5.7,4.5-8.5.2-1.1.3-2,.5-2.6.2-.5.4-.9.6-1.2-.4-.1-.9-.2-1.3-.4-.2.3-.4.7-.5,1.1-.3.8-.4,1.7-.6,2.9-.4,3-1,6.5-4.4,7.8-.3-.2-.5-.5-.7-.7,2.9-1.7,3.5-5.1,3.9-7.7.2-1,.3-1.8.5-2.3.2-.6.5-1,.8-1.4-.4-.1-.7-.2-1.1-.4,0,0-.1,0-.2,0-.2.4-.5.8-.7,1.3-.3.7-.4,1.6-.6,2.6-.4,2.5-.9,5.5-3.5,6.9-.3-.3-.5-.6-.7-1,2-1.7,2.6-4.5,3-6.4.2-.9.3-1.6.6-2.1.3-.7.7-1.2,1.1-1.6-.5-.2-.9-.3-1.4-.4-.3.4-.6.9-.9,1.5-.3.6-.5,1.4-.7,2.4-.4,1.9-.9,4.1-2.4,5.6-.2-.5-.5-.9-.7-1.4,1-1.5,1.5-3.3,1.8-4.6.2-.8.4-1.5.6-1.9.5-.9,1-1.4,1.5-1.7-.6-.1-1.1-.3-1.5-.4-.4.4-.8.9-1.1,1.5-.3.5-.5,1.3-.7,2.2-.3,1.1-.6,2.3-1.1,3.4-.2-.9-.4-1.8-.5-2.7.1-.4.2-.8.3-1.1.2-.7.4-1.3.6-1.6.6-1,1.4-1.5,1.9-1.7-.7-.1-1.4-.2-1.9-.3-.2.2-.5.5-.7.8.2-1.1.5-2.1,1-3.1.2.1.5.3.9.5.7.4,1.6.9,2.9,1.7,0,0,0,0,0,0,.8.5,2.4,1.4,3.7,2.1.5.2,1,.3,1.5.5-1.3-1.1-2.7-2.3-4.2-3.5-1.5-1.3-2.6-2.3-3.2-2.9-.1-.1-.2-.2-.3-.3.4-.5.8-1,1.3-1.5ZM44.9,45.8c0-1,.2-1.9.2-2.8,0-1.5.1-2.9.4-3.9.5-2,1.3-3.1,2.1-3.8-.7.2-1.4.5-2.1.6-.5.8-.9,1.7-1.2,2.9-.3,1.2-.4,2.6-.4,4.1,0,1.4-.1,2.9-.4,4.3-.6.5-1.2.9-1.8,1.3.7-2,.9-4.3,1-6.3,0-1.4.2-2.7.4-3.6.3-1,.7-1.8,1.1-2.4-.5,0-1,.1-1.6.2-.3.6-.5,1.2-.7,1.9-.3,1.1-.4,2.4-.5,3.9-.2,2.5-.3,5.1-1.5,7.2-.7.3-1.5.5-2.3.6,2-2.4,2.3-5.7,2.5-8.5.1-1.3.2-2.5.5-3.4.2-.7.4-1.2.7-1.7-.5,0-.9,0-1.4,0-.2.4-.4.8-.5,1.3-.3,1-.4,2.3-.5,3.6-.3,3.2-.5,6.7-3.2,8.7-.6,0-1.3,0-1.9-.1,3.2-2.2,3.6-6.3,3.9-9.2.1-1.2.2-2.3.5-3.1.2-.5.3-.9.5-1.3.1,0,.3,0,.4,0,0,0,0,0,0,0,2.2-.5,4.8-1,6.1-1.2,0,0,0,0,0,0,1.6-.3,2.5-.5,3-.6,0,.4.1.8.1,1.2-.6.9-1.2,2-1.6,3.6-.3,1.2-.3,2.8-.4,4.4,0,0,0,0,0,.1-.4.7-.9,1.3-1.4,1.9ZM48.2,38.9c0,.5-.2,1.1-.4,1.6,0-.3,0-.6.2-.9,0-.3.1-.5.2-.7Z"/>
</svg>