<?xml version="1.0" encoding="UTF-8"?>
<svg id="Livello_1" xmlns="http://www.w3.org/2000/svg" xmlns:xlink="http://www.w3.org/1999/xlink" version="1.1" viewBox="0 0 100 125">
  <!-- Generator: Adobe Illustrator 29.2.0, SVG Export Plug-In . SVG Version: 2.1.0 Build 108)  -->
  <path d="M87.5,22H12.5c-1.1,0-2-.9-2-2h0c0-1.1.9-2,2-2h75c1.1,0,2,.9,2,2h0c0,1.1-.9,2-2,2Z"/>
  <path d="M87.5,52H12.5c-1.1,0-2-.9-2-2h0c0-1.1.9-2,2-2h75c1.1,0,2,.9,2,2h0c0,1.1-.9,2-2,2Z"/>
  <path d="M87.5,82H12.5c-1.1,0-2-.9-2-2h0c0-1.1.9-2,2-2h75c1.1,0,2,.9,2,2h0c0,1.1-.9,2-2,2Z"/>
</svg>