<?xml version="1.0" encoding="UTF-8"?>
<svg id="Livello_1" xmlns="http://www.w3.org/2000/svg" xmlns:xlink="http://www.w3.org/1999/xlink" version="1.1" viewBox="0 0 110 135">
  <!-- Generator: Adobe Illustrator 29.2.0, SVG Export Plug-In . SVG Version: 2.1.0 Build 108)  -->
  <path d="M79.8,66.2c-3.5-3.5-7.7-6.2-12.3-8,5.2-3.9,8.6-10,8.6-17,0-11.7-9.5-21.2-21.2-21.2s-21.2,9.5-21.2,21.2,3.4,13.1,8.6,17c-13.5,5.2-22.6,18.2-22.6,32.8v7.3c0,.9.7,1.6,1.6,1.6h67.1c.9,0,1.6-.7,1.6-1.6v-7.3c0-9.4-3.7-18.2-10.3-24.9ZM37.1,41.2c0-9.9,8-17.9,17.9-17.9s17.9,8,17.9,17.9-8,17.9-17.9,17.9c-9.9,0-17.9-8-17.9-17.9ZM86.9,96.7H23.1v-5.7c0-14.2,9.4-26.7,23-30.6,2.7,1.3,5.7,2,8.9,2s6.2-.7,8.9-2c5.1,1.5,9.8,4.3,13.7,8.1,6,6,9.3,14,9.3,22.6v5.7h0Z"/>
</svg>